<svg width="24px" height="24px" viewBox="0 0 24 24" xmlns="http://www.w3.org/2000/svg">
  <path d="M4.5,16 C4.77614237,16 5,16.2238576 5,16.5 L5,19.5010024 C5,20.3294295 5.67157288,21.0010024 6.5,21.0010024 L17.5,21.0010024 C18.3284271,21.0010024 19,20.3294295 19,19.5010024 L19,7.00100238 L15.5,7.00100238 C15.2238576,7.00100238 15,6.77714475 15,6.50100238 L15,3.00100238 L6.5,3.00100238 C5.67157288,3.00100238 5,3.67257525 5,4.50100238 L5,6.5 C5,6.77614237 4.77614237,7 4.5,7 C4.22385763,7 4,6.77614237 4,6.5 L4,4.50100238 C4,3.1202905 5.11928813,2.00100238 6.5,2.00100238 L15.4720225,2.00100238 C15.6047688,1.99258291 15.7429463,2.03684187 15.8535534,2.14744899 L19.8535534,6.14744899 C19.9641605,6.25805611 20.0084195,6.39623363 20,6.52897986 L20,19.5010024 C20,20.8817143 18.8807119,22.0010024 17.5,22.0010024 L6.5,22.0010024 C5.11928813,22.0010024 4,20.8817143 4,19.5010024 L4,16.5 C4,16.2238576 4.22385763,16 4.5,16 Z M16,3.70810916 L16,6.00100238 L18.2928932,6.00100238 L16,3.70810916 Z M12.2928932,11 L10.1464466,8.85355339 C9.95118446,8.65829124 9.95118446,8.34170876 10.1464466,8.14644661 C10.3417088,7.95118446 10.6582912,7.95118446 10.8535534,8.14644661 L13.8535534,11.1464466 C14.0488155,11.3417088 14.0488155,11.6582912 13.8535534,11.8535534 L10.8535534,14.8535534 C10.6582912,15.0488155 10.3417088,15.0488155 10.1464466,14.8535534 C9.95118446,14.6582912 9.95118446,14.3417088 10.1464466,14.1464466 L12.2928932,12 L4.5,12 C4.22385763,12 4,11.7761424 4,11.5 C4,11.2238576 4.22385763,11 4.5,11 L12.2928932,11 Z"/>
</svg>
