<?xml version="1.0" encoding="iso-8859-1"?>
<!-- Generator: Adobe Illustrator 19.0.0, SVG Export Plug-In . SVG Version: 6.00 Build 0)  -->
<svg version="1.1" id="Layer_1" xmlns="http://www.w3.org/2000/svg" xmlns:xlink="http://www.w3.org/1999/xlink" x="0px" y="0px"
	 viewBox="0 0 512.001 512.001" style="enable-background:new 0 0 512.001 512.001;" xml:space="preserve">
<polygon style="fill:#CFF09E;" points="233.739,68.885 13.83,213.874 233.739,358.862 "/>
<g>
	<path style="fill:#507C5C;" d="M319.08,139.484h-71.511V68.885c0-5.088-2.794-9.765-7.273-12.177
		c-4.481-2.413-9.921-2.167-14.168,0.631L6.218,202.328C2.336,204.886,0,209.224,0,213.874s2.336,8.988,6.218,11.546l219.91,144.988
		c2.301,1.517,4.952,2.283,7.613,2.283c2.249,0,4.503-0.548,6.555-1.653c4.479-2.412,7.273-7.089,7.273-12.177V167.144h71.511
		c7.637,0,13.83-6.191,13.83-13.829C332.909,145.676,326.716,139.484,319.08,139.484z M219.91,333.18L38.954,213.874L219.91,94.568
		L219.91,333.18L219.91,333.18z"/>
	<path style="fill:#507C5C;" d="M498.171,456.945c-4.705,0-9.198-2.409-11.765-6.561l-57.03-92.286
		c-28.543-46.186-77.996-73.76-132.29-73.76c-7.637,0-13.829-6.191-13.829-13.829s6.193-13.829,13.829-13.829
		c31.15,0,61.995,8.018,89.202,23.188c27.207,15.17,50.243,37.194,66.618,63.692l31.436,50.87v-62.024
		c0-69.304-43.747-131.75-108.858-155.39c-7.179-2.607-10.885-10.539-8.278-17.718c2.607-7.18,10.537-10.888,17.72-8.28
		c76.008,27.597,127.077,100.491,127.077,181.388v110.709c0,6.183-4.103,11.614-10.051,13.304
		C500.697,456.774,499.426,456.945,498.171,456.945z"/>
</g>
<g>
</g>
<g>
</g>
<g>
</g>
<g>
</g>
<g>
</g>
<g>
</g>
<g>
</g>
<g>
</g>
<g>
</g>
<g>
</g>
<g>
</g>
<g>
</g>
<g>
</g>
<g>
</g>
<g>
</g>
</svg>
